<?xml version="1.0" standalone="no"?>
<!DOCTYPE svg PUBLIC "-//W3C//DTD SVG 20010904//EN"
 "http://www.w3.org/TR/2001/REC-SVG-20010904/DTD/svg10.dtd">
<svg version="1.0" xmlns="http://www.w3.org/2000/svg"
 width="500.000000pt" height="500.000000pt" viewBox="0 0 500.000000 500.000000"
 preserveAspectRatio="xMidYMid meet">
<metadata>
Created by potrace 1.14, written by Peter Selinger 2001-2017
</metadata>
<g transform="translate(0.000000,500.000000) scale(0.100000,-0.100000)"
fill="#000000" stroke="none">
<path d="M0 2500 l0 -2500 2500 0 2500 0 0 2500 0 2500 -2500 0 -2500 0 0
-2500z m2572 1234 c81 -52 156 -121 219 -199 24 -30 49 -55 55 -55 6 0 58 15
115 34 126 41 277 79 422 104 l107 19 0 -448 0 -449 -80 0 -80 0 0 350 c0 239
-3 350 -11 350 -27 0 -341 -86 -371 -101 -14 -8 -10 -19 33 -96 46 -83 75
-150 67 -158 -1 -1 -33 -17 -70 -33 l-68 -31 -46 92 c-25 51 -55 107 -66 125
l-20 33 -67 -37 c-99 -53 -98 -52 -56 -113 64 -96 80 -204 41 -280 -45 -86
-114 -131 -199 -131 -45 0 -63 6 -103 33 -27 18 -62 53 -79 81 -26 43 -30 58
-29 120 0 75 19 124 72 195 l25 34 -24 18 c-13 10 -49 32 -80 49 l-57 30 -15
-23 c-8 -13 -38 -68 -66 -124 l-50 -102 -71 32 c-41 18 -70 37 -70 46 0 8 25
61 55 117 30 57 55 107 55 112 0 13 -337 112 -379 112 -8 0 -11 -105 -11 -350
l0 -350 -80 0 -80 0 0 450 0 450 33 -6 c206 -37 352 -73 520 -127 l97 -31 32
39 c60 74 132 146 182 183 42 32 114 78 124 81 2 1 35 -20 74 -45z m-1102
-1680 c0 -264 -3 -335 -12 -332 -10 4 -14 76 -16 309 -3 304 1 375 19 364 5
-4 9 -141 9 -341z m214 201 c48 -69 91 -127 96 -130 5 -3 52 58 106 135 92
132 114 157 114 128 -1 -22 -204 -303 -219 -303 -8 0 -33 27 -56 60 -22 33
-67 97 -98 143 -31 46 -57 90 -57 99 0 26 22 1 114 -132z m436 -195 c0 -220
-4 -340 -10 -340 -6 0 -10 120 -10 340 0 220 4 340 10 340 6 0 10 -120 10
-340z m-797 315 c-2 -6 -69 -11 -168 -13 l-165 -2 0 -310 0 -310 164 0 c150 0
202 -8 160 -24 -9 -3 -89 -6 -179 -6 -139 0 -164 2 -169 16 -8 21 -8 628 0
648 6 14 28 16 183 14 111 -2 175 -7 174 -13z m1269 5 c171 -48 187 -324 23
-391 -16 -7 -66 -15 -110 -18 l-80 -6 -3 -122 c-2 -101 -5 -123 -18 -123 -12
0 -14 21 -12 138 l3 137 101 5 c91 5 104 8 137 33 49 37 70 81 71 142 1 72
-27 129 -80 160 -40 24 -51 25 -188 25 l-146 0 0 -320 c0 -278 -2 -320 -15
-320 -13 0 -15 43 -15 328 0 181 3 332 7 335 10 11 284 8 325 -3z m268 -331
c0 -286 -2 -329 -15 -329 -13 0 -15 43 -15 328 0 181 3 332 6 335 20 20 24
-35 24 -334z m130 0 c0 -286 -2 -329 -15 -329 -13 0 -15 43 -15 328 0 181 3
332 6 335 20 20 24 -35 24 -334z m490 320 c108 -46 153 -175 100 -284 -22 -45
-80 -94 -128 -109 -21 -7 -17 -14 68 -125 49 -65 90 -120 90 -124 0 -22 -32 3
-75 60 -27 36 -71 92 -97 125 -27 33 -48 66 -48 73 0 7 17 15 38 19 166 27
201 261 50 335 -39 18 -62 21 -181 21 l-137 0 0 -320 c0 -278 -2 -320 -15
-320 -13 0 -15 44 -15 335 l0 335 151 0 c131 0 157 -3 199 -21z m573 6 c-2 -6
-69 -11 -168 -13 l-165 -2 0 -310 0 -310 164 0 c96 0 167 -4 171 -10 10 -17
-36 -21 -200 -18 l-160 3 -3 315 c-1 173 0 325 3 338 5 22 6 22 183 20 112 -2
176 -7 175 -13z m-2730 -130 c-2 -6 -47 -11 -103 -13 l-100 -3 0 -49 0 -49 73
-3 c100 -4 88 -23 -15 -23 l-83 0 -3 45 c-2 24 -1 59 3 78 l6 33 112 -3 c68
-2 111 -7 110 -13z m1252 -10 c58 -57 1 -149 -82 -133 -29 5 -19 23 18 29 49
7 59 16 59 49 0 39 -23 50 -104 50 -52 0 -66 3 -66 15 0 12 15 15 75 15 67 0
79 -3 100 -25z m849 14 c59 -27 55 -117 -6 -138 -44 -16 -78 -14 -78 4 0 10
10 15 32 15 34 0 68 24 68 48 0 36 -31 52 -101 52 -63 0 -88 8 -72 24 11 10
131 7 157 -5z m629 -4 c-2 -6 -47 -11 -103 -13 l-100 -3 0 -49 0 -49 73 -3
c100 -4 88 -23 -15 -23 l-83 0 -3 64 c-2 35 -1 70 2 78 4 11 29 13 118 11 69
-2 112 -7 111 -13z m-2368 -220 c47 -68 90 -127 95 -130 4 -3 48 52 97 122 49
70 94 128 101 131 9 3 12 -48 12 -212 0 -185 -2 -216 -15 -216 -13 0 -15 26
-15 176 0 142 -2 174 -13 166 -7 -6 -44 -56 -82 -111 -39 -56 -75 -101 -82
-101 -6 0 -46 49 -88 110 -43 60 -81 107 -86 104 -5 -3 -9 -81 -9 -175 0 -106
-4 -169 -10 -169 -6 0 -10 78 -10 215 0 129 4 215 10 215 5 0 48 -56 95 -125z
m-420 -40 c0 -5 -33 -11 -72 -13 l-73 -3 0 -49 0 -49 100 -3 c137 -4 134 -22
-4 -26 -81 -2 -112 1 -118 10 -9 15 -11 109 -2 133 5 13 20 15 88 13 45 -2 81
-7 81 -13z m2730 0 c0 -5 -33 -11 -72 -13 l-73 -3 0 -49 0 -50 100 0 c83 0
100 -3 100 -15 0 -13 -17 -15 -112 -13 l-113 3 -3 54 c-2 30 -1 65 3 78 5 23
9 24 88 21 46 -2 82 -7 82 -13z m-633 -129 c84 -113 98 -136 77 -135 -8 0 -43
40 -79 90 -36 49 -65 89 -66 89 -1 0 -2 -39 -3 -87 -2 -90 -6 -107 -22 -98
-15 10 -12 245 4 245 6 0 47 -47 89 -104z"/>
<path d="M2405 3507 c-47 -46 -85 -88 -85 -94 0 -5 19 -20 43 -33 23 -12 63
-38 89 -56 l46 -33 82 54 c45 30 87 56 93 58 7 2 2 16 -11 34 -26 37 -151 153
-164 153 -5 0 -47 -38 -93 -83z"/>
<path d="M2472 3018 c-32 -52 -35 -79 -12 -116 27 -44 58 -40 84 9 l20 37 -25
48 c-13 26 -29 49 -36 51 -6 2 -20 -11 -31 -29z"/>
</g>
</svg>
